PathFileType	4	(X/Y/Z)	C:/Users/opensim2020/Desktop/walking_exp_matlab/subject06_walking23_straight_01.trc	
DataRate	CameraRate	NumFrames	NumMarkers	Units	OrigDataRate	OrigDataStartFrame	OrigNumFrames	
100.00	100.00	9	45	mm	100.00	751	106	
Frame#	Time	LFHD			RFHD			LBHD			RBHD			C7			T10			CLAV			STRN			RBAK			LSHO			LUPA			LELB			LFRM			LWRA			LWRB			LFIN			RSHO			RUPA			RELB			RFRM			RWRA			RWRB			RFIN			LASI			RASI			LPSI			RPSI			LTHI			LKNE			LTIB			LANK			LHEE			LTOE			RTHI			RKNE			RTIB			RANK			RHEE			RTOE			*39			*40			*41			*42			*43			*44			
		X1	Y1	Z1	X2	Y2	Z2	X3	Y3	Z3	X4	Y4	Z4	X5	Y5	Z5	X6	Y6	Z6	X7	Y7	Z7	X8	Y8	Z8	X9	Y9	Z9	X10	Y10	Z10	X11	Y11	Z11	X12	Y12	Z12	X13	Y13	Z13	X14	Y14	Z14	X15	Y15	Z15	X16	Y16	Z16	X17	Y17	Z17	X18	Y18	Z18	X19	Y19	Z19	X20	Y20	Z20	X21	Y21	Z21	X22	Y22	Z22	X23	Y23	Z23	X24	Y24	Z24	X25	Y25	Z25	X26	Y26	Z26	X27	Y27	Z27	X28	Y28	Z28	X29	Y29	Z29	X30	Y30	Z30	X31	Y31	Z31	X32	Y32	Z32	X33	Y33	Z33	X34	Y34	Z34	X35	Y35	Z35	X36	Y36	Z36	X37	Y37	Z37	X38	Y38	Z38	X39	Y39	Z39	X40	Y40	Z40	X41	Y41	Z41	X42	Y42	Z42	X43	Y43	Z43	X44	Y44	Z44	X45	Y45	Z45	

14	0.130	1329.42749	-698.40906	1630.92834	1460.98853	-695.96680	1622.87000	1333.11938	-834.05286	1582.86438	1462.45691	-829.68469	1579.54333	1385.36975	-840.77594	1429.10767	1401.25073	-908.81445	1106.52234	1394.60706	-736.53680	1343.62256	1385.68604	-714.09186	1165.01294	1456.91772	-933.22113	1266.89014	1229.59058	-778.68079	1382.64294	1148.32642	-764.71979	1185.67236	1127.87585	-751.56628	1074.50891	1108.20178	-664.45483	953.08942	1153.60339	-554.90320	888.63763	1118.79199	-603.80237	850.33490	1119.60913	-525.69342	804.42120	1551.82922	-792.27881	1379.71326	1632.09631	-893.32520	1206.59766	1649.13989	-927.56555	1090.29968	1674.10571	-969.82153	979.19788	1663.49426	-980.29010	824.78668	1690.84766	-1033.59680	856.24438	1701.08521	-1040.71509	771.99182	1285.45337	-761.97296	930.22162	1503.65601	-744.77002	935.18030	1327.98132	-914.23877	975.34772	1494.48169	-895.14246	969.47455	1237.84973	-889.82941	631.62158	1264.05249	-929.04688	471.15762	1277.46021	-1051.98474	242.05782	1329.44287	-1112.95435	82.12035	1373.81677	-1157.75244	77.47771	1332.16016	-977.31549	39.16462	1573.66467	-724.54565	622.59448	1550.66333	-663.47986	511.19360	1537.42212	-623.17853	253.65918	1491.09912	-571.37524	75.94545	1440.22729	-597.58685	47.93269	1507.68127	-416.42419	72.51037	1389.57214	-795.55707	1674.85205															 
15	0.140	1330.33069	-685.96466	1629.47144	1461.93518	-683.60645	1621.22595	1333.96924	-821.53571	1580.93835	1463.27991	-817.16748	1577.45435	1386.03699	-827.78247	1427.18225	1401.88562	-895.75067	1104.50073	1395.11694	-723.43127	1341.81445	1385.68945	-700.76221	1163.26831	1457.54138	-919.89386	1264.55261	1230.28528	-766.22858	1381.25464	1148.92029	-751.47675	1184.54626	1128.63574	-737.23724	1073.46362	1109.68201	-647.21033	954.08600	1155.32837	-536.58923	892.79535	1120.51978	-584.22266	853.07941	1121.64063	-504.58386	809.41608	1552.50073	-779.00317	1377.54993	1632.80334	-880.58533	1204.89587	1649.95752	-915.35535	1088.75061	1674.94250	-958.11121	977.86700	1664.27344	-969.12195	823.47406	1691.66504	-1022.33600	855.11865	1701.64917	-1029.90198	770.77631	1285.72205	-749.02728	928.39001	1503.77637	-730.45758	933.39972	1328.98804	-901.42841	972.98334	1495.58862	-881.14154	967.36035	1238.19519	-879.79962	630.75897	1264.07288	-920.85608	470.48425	1277.77222	-1047.98853	243.52615	1329.37781	-1111.77356	84.53779	1373.80493	-1156.52844	80.77548	1332.23315	-976.97797	39.06536	1574.33276	-711.00800	619.51508	1549.70264	-650.46100	508.10910	1537.65088	-602.25201	252.87271	1492.02332	-542.50085	77.09741	1440.81104	-566.51343	47.02206	1508.55237	-387.11273	79.89680	1390.55408	-783.35486	1672.98059															 
16	0.150	1331.38818	-673.43457	1628.10559	1462.92126	-671.07245	1619.70959	1334.90430	-808.81995	1579.18652	1464.23975	-804.57227	1575.54517	1387.11523	-815.01624	1425.61609	1402.52661	-882.45221	1102.60364	1395.73926	-709.99078	1340.27148	1385.70825	-687.43756	1161.63367	1458.35522	-906.43359	1262.32056	1231.08154	-753.59460	1379.92969	1149.70007	-738.07776	1183.50012	1129.56653	-723.05768	1072.51672	1110.92969	-630.52203	955.20996	1156.96582	-518.34869	897.06580	1122.26428	-564.96710	855.83905	1123.83862	-484.40601	814.24908	1553.26257	-765.58862	1375.53613	1633.66846	-867.55011	1203.30237	1650.99890	-902.63391	1087.34302	1675.93616	-945.90015	976.56805	1665.21167	-957.30450	822.13403	1692.58997	-1010.48181	853.98535	1702.51770	-1018.31183	769.58331	1285.39539	-736.33215	926.66309	1503.76123	-715.81549	931.73975	1330.25110	-888.22620	970.65076	1496.80725	-866.80872	965.32709	1238.51624	-869.11505	629.81293	1264.19287	-911.94012	469.83017	1278.04468	-1043.22461	245.08383	1329.23828	-1110.40015	87.42495	1373.55933	-1155.18042	84.62404	1332.33423	-976.68970	38.98153	1575.62183	-696.57086	616.97229	1548.93848	-636.92401	505.27954	1537.79688	-582.24518	252.32275	1492.63782	-516.32635	78.53593	1441.44556	-538.58240	46.99197	1509.32007	-361.16956	86.69162	1391.63318	-771.02783	1671.26855															 
17	0.160	1332.47229	-660.82196	1626.85693	1464.03674	-658.40265	1618.36096	1335.96399	-796.01056	1577.64807	1465.31262	-791.75677	1573.90564	1388.23962	-801.87323	1423.97290	1403.17078	-868.69824	1100.82922	1396.41052	-696.51483	1338.82434	1385.93958	-673.67255	1160.29968	1459.28796	-892.74908	1260.24463	1232.08118	-740.87775	1378.87634	1150.56799	-724.67291	1182.66443	1130.59741	-708.81451	1071.73401	1112.26367	-614.34344	956.34619	1158.57642	-500.91211	900.94147	1124.04712	-546.53546	858.79041	1125.82959	-464.95029	818.99695	1554.18457	-751.91412	1373.70032	1634.72107	-854.19281	1201.81140	1652.14050	-889.69354	1085.95349	1677.12048	-932.88123	975.05304	1666.46497	-944.65094	820.85999	1693.84802	-997.70209	852.70673	1703.56848	-1005.82458	768.35162	1285.35852	-723.10120	925.05334	1503.91785	-701.07648	930.36304	1331.56250	-875.09277	968.67987	1498.01501	-852.35431	963.54541	1239.10266	-858.14282	628.92944	1264.27625	-902.39069	469.19324	1278.17627	-1038.04968	246.94855	1328.86572	-1109.01465	90.78964	1373.03967	-1153.75659	89.16992	1332.49121	-976.41162	38.99186	1576.81311	-681.26233	614.38159	1548.28430	-622.71857	503.05099	1538.00354	-563.45740	251.84142	1492.92444	-493.22833	79.72243	1441.77332	-514.43518	47.35574	1509.89844	-338.31555	92.13486	1392.75696	-758.38617	1669.74744															 
18	0.170	1333.64624	-647.98914	1625.80017	1465.19080	-645.45001	1617.27161	1337.17505	-783.07629	1576.28699	1466.52856	-778.73651	1572.50720	1389.49365	-788.50104	1422.54333	1403.76929	-854.73230	1099.23706	1397.22424	-682.81677	1337.57312	1386.15540	-659.81720	1159.06091	1460.37292	-878.80750	1258.29333	1233.12476	-727.87146	1378.00366	1151.74756	-711.24402	1181.98230	1131.73340	-694.86273	1071.18005	1113.73535	-598.21295	957.59119	1160.52222	-484.18286	904.78339	1125.83191	-528.70435	861.62952	1127.64868	-446.01019	823.81226	1555.19629	-738.06708	1372.13293	1635.89539	-840.46515	1200.48999	1653.42749	-876.19507	1084.61694	1678.49084	-919.44476	973.78357	1667.80432	-931.21851	819.60596	1695.22424	-984.29407	851.44470	1704.84302	-992.37177	767.01617	1285.45813	-709.42310	923.57214	1504.03687	-686.15204	929.00391	1332.92761	-861.40295	966.73480	1499.37451	-837.55005	962.00623	1239.58862	-846.23798	628.00006	1264.30518	-892.11639	468.54135	1278.15637	-1032.43616	249.14909	1328.16931	-1107.49377	94.83349	1372.41272	-1151.65918	94.24093	1332.62317	-975.99792	38.84503	1577.89966	-665.10706	612.41418	1547.52002	-607.84058	501.20123	1537.94983	-546.11475	251.36876	1492.94824	-473.26563	80.23453	1441.75549	-493.71198	47.26004	1510.19666	-319.01678	95.55096	1393.98657	-745.66010	1668.46899															 
19	0.180	1334.84363	-634.97552	1624.97192	1466.43701	-632.38593	1616.39880	1338.45740	-769.94348	1575.16895	1467.86780	-765.60010	1571.39014	1390.68445	-774.54742	1421.20581	1404.41541	-840.67059	1097.83472	1398.23291	-668.97046	1336.66541	1386.76855	-645.55585	1158.16919	1461.67859	-864.71484	1256.62036	1234.34949	-714.81506	1377.28943	1152.85645	-697.85443	1181.46960	1132.95630	-680.96832	1070.77234	1115.26575	-582.73291	958.84509	1162.16223	-467.84579	908.38965	1127.64319	-511.15454	864.28088	1129.64429	-427.99133	828.22815	1556.33374	-723.93237	1370.77930	1637.20520	-826.31970	1199.23657	1654.82532	-862.18701	1083.42834	1679.90503	-905.38428	972.58350	1669.20715	-917.11761	818.48621	1696.72302	-970.19312	850.23749	1706.40283	-978.13373	765.73987	1285.68445	-695.50562	922.20258	1504.34448	-671.15051	928.05438	1334.21777	-847.37628	965.08679	1500.70850	-822.35101	960.83105	1240.01538	-833.97882	627.27496	1264.28589	-881.00409	467.95462	1277.90857	-1026.32251	251.75063	1327.32385	-1105.18958	99.23943	1371.44299	-1149.26050	99.99174	1332.67090	-975.62415	38.72073	1578.34375	-648.61786	611.23901	1547.06580	-591.76270	500.97604	1537.97656	-530.16144	250.96155	1492.71716	-456.87561	80.00507	1441.38770	-476.95538	46.54618	1510.17529	-302.87100	96.40661	1395.27710	-732.71344	1667.38928															 
20	0.190	1336.18286	-621.87933	1624.34375	1467.75183	-619.10272	1615.74841	1339.90588	-756.75970	1574.30518	1469.27283	-752.22583	1570.52722	1392.26892	-761.24042	1420.34448	1405.11475	-826.10272	1096.57178	1399.31946	-654.96912	1335.98401	1387.48193	-631.16107	1157.44690	1463.00842	-850.39648	1255.27075	1235.74829	-701.69684	1376.76477	1154.18762	-684.39252	1181.11365	1134.25305	-667.24249	1070.59534	1116.77515	-567.52124	960.18073	1163.88452	-452.07333	911.81244	1129.45142	-494.39297	867.02386	1131.59119	-410.56439	832.40515	1557.55396	-709.70044	1369.74524	1638.68909	-811.81592	1198.15393	1656.36523	-847.61353	1082.30505	1681.54871	-890.58899	971.42377	1670.97632	-902.08313	817.34705	1698.44690	-955.15649	848.89661	1708.17944	-962.93073	764.44312	1286.16309	-681.05249	920.98779	1504.81140	-655.87665	927.29315	1335.56189	-832.78906	963.69312	1502.00671	-807.15039	960.08441	1240.41248	-820.89459	626.58057	1264.16907	-868.96283	467.48016	1277.52979	-1019.39069	254.76807	1326.25989	-1102.39966	104.28637	1370.17651	-1146.37805	106.53522	1332.73401	-975.21643	38.55392	1578.86816	-631.79413	611.10657	1546.83813	-575.21680	501.58307	1538.17041	-515.04730	250.44701	1492.25647	-443.76630	78.81084	1441.11536	-464.25534	45.23178	1509.34509	-289.72360	94.95679	1396.72339	-719.63226	1666.62488															 
21	0.200	1337.55225	-608.63226	1623.96533	1469.08655	-605.67004	1615.37256	1341.43982	-743.44397	1573.78918	1470.78723	-738.76056	1569.92078	1393.76514	-747.29767	1419.48608	1405.95044	-811.38074	1095.55457	1400.52649	-640.76270	1335.62256	1388.37329	-616.39014	1157.05945	1464.45630	-835.70410	1254.10071	1237.19177	-688.21368	1376.44092	1155.59265	-670.99481	1181.00830	1135.62085	-653.72742	1070.56702	1118.26770	-552.87244	961.57434	1165.76001	-436.96475	914.82733	1131.14075	-478.76077	869.55945	1133.23828	-393.99423	836.38391	1558.95667	-695.28369	1368.97766	1640.24402	-796.90833	1197.22205	1658.00073	-832.44415	1081.34509	1683.28345	-875.14648	970.31561	1672.69446	-886.38586	816.30182	1700.27063	-939.43207	847.68109	1710.11304	-946.96765	763.26044	1286.74146	-666.31805	920.09412	1505.69897	-640.43939	926.91998	1336.76416	-818.15869	962.74969	1503.02783	-792.04230	959.75623	1240.83301	-807.20294	626.06384	1264.02222	-855.98871	467.05020	1277.14697	-1011.62164	258.06531	1325.04663	-1099.27649	110.01749	1368.97681	-1142.80615	114.03551	1332.87830	-974.93945	38.46404	1579.55774	-614.76172	611.70892	1546.53699	-558.24890	503.12927	1538.24854	-501.21637	249.83919	1491.67517	-433.85928	76.70762	1440.83484	-455.26257	43.03279	1507.29895	-280.16418	91.71372	1398.23572	-706.31744	1666.09888															 
22	0.210	1339.02576	-595.15753	1623.91638	1470.57214	-592.11194	1615.23889	1343.04419	-729.95526	1573.47729	1472.45276	-725.12067	1569.64917	1395.40125	-733.32190	1418.95544	1406.98389	-796.30774	1094.81335	1401.85083	-626.51807	1335.51331	1389.55444	-601.45654	1156.96875	1466.02417	-821.04022	1253.22632	1238.76941	-674.74493	1376.27649	1157.00891	-657.55188	1181.05859	1136.99109	-640.37213	1070.73694	1119.76624	-538.53082	962.86523	1167.53125	-422.20218	917.74060	1132.92322	-463.31189	871.66895	1135.14001	-378.15967	839.80884	1560.45129	-680.75385	1368.58582	1641.97180	-781.65094	1196.40637	1659.75073	-816.73529	1080.44324	1685.13623	-859.03973	969.29175	1674.63525	-869.83752	815.31604	1702.28137	-922.93683	846.45471	1712.19250	-930.12000	762.06024	1287.51306	-651.07660	919.40021	1506.88171	-624.51617	927.19116	1338.00903	-802.49890	961.84399	1503.91479	-775.96051	959.63800	1241.21228	-792.89557	625.59534	1263.78625	-842.21442	466.68512	1276.79785	-1002.97363	261.66089	1323.86670	-1095.27307	116.35935	1367.85132	-1138.57764	122.25014	1333.05566	-974.61090	38.34706	1580.45471	-597.72131	613.15021	1546.17798	-541.17712	504.99051	1538.16528	-488.87787	248.83824	1491.01379	-426.81845	73.83305	1440.66614	-449.77271	40.78436	1504.73877	-273.29486	87.12384	1399.85327	-692.90875	1665.87134															 
